<!-- Generator: Adobe Illustrator 20.1.0, SVG Export Plug-In  -->
<svg version="1.1"
	 xmlns="http://www.w3.org/2000/svg" xmlns:xlink="http://www.w3.org/1999/xlink" xmlns:a="http://ns.adobe.com/AdobeSVGViewerExtensions/3.0/"
	 x="0px" y="0px" width="157.719px" height="154.218px" viewBox="0 0 157.719 154.218"
	 style="enable-background:new 0 0 157.719 154.218;" xml:space="preserve">
<style type="text/css">
	.st0{fill:#0071BC;}
</style>
<defs>
</defs>
<g>
	<path class="st0" d="M64.916,30.78h-2.138c-2.506,0-4.523,1.868-4.523,4.17V52.54h11.199V34.949
		C69.439,32.648,67.423,30.78,64.916,30.78L64.916,30.78z M64.916,30.78"/>
	<path class="st0" d="M94.94,30.78h-2.134c-2.51,0-4.542,1.868-4.542,4.17V52.54h11.214V34.949
		C99.463,32.648,97.447,30.78,94.94,30.78L94.94,30.78z M94.94,30.78"/>
	<path class="st0" d="M78.861,0C35.379,0,0,35.379,0,78.858c0,20.993,8.157,40.752,22.964,55.631
		c8.765,8.811,19.611,15.517,31.376,19.341c0.786,0.254,1.587,0.387,2.358,0.387c3.201,0,6.171-2.047,7.223-5.252
		c1.306-3.991-0.873-8.279-4.865-9.566c-9.479-3.103-18.247-8.503-25.323-15.623C21.776,111.76,15.19,95.814,15.19,78.858
		c0-35.113,28.57-63.667,63.671-63.667c35.113,0,63.667,28.554,63.667,63.667c0,17.017-6.615,32.994-18.631,45.009
		c-4.614,4.139-16.064,12.475-22.934,12.475c-3.532,0-6.171-1.113-8.309-3.501c-5.442-6.053-6.631-18.305-6.585-26.849
		c13.189-0.668,23.674-11.526,23.674-24.878V57.481H47.975v23.633c0,13.083,10.071,23.796,22.888,24.848
		c-0.072,10.178,1.352,26.849,10.459,37.012c5.013,5.609,11.807,8.56,19.641,8.56c14.685,0,31.418-14.833,33.275-16.527l0.235-0.22
		c14.997-14.909,23.245-34.775,23.245-55.912C157.719,35.379,122.34,0,78.861,0L78.861,0z M78.861,0"/>
</g>
</svg>