<!-- Generator: Adobe Illustrator 20.1.0, SVG Export Plug-In  -->
<svg version="1.1"
	 xmlns="http://www.w3.org/2000/svg" xmlns:xlink="http://www.w3.org/1999/xlink" xmlns:a="http://ns.adobe.com/AdobeSVGViewerExtensions/3.0/"
	 x="0px" y="0px" width="59.53px" height="59.545px" viewBox="0 0 59.53 59.545" style="enable-background:new 0 0 59.53 59.545;"
	 xml:space="preserve">
<style type="text/css">
	.st0{fill:#0071BC;}
</style>
<defs>
</defs>
<g>
	<g>
		<path class="st0" d="M29.996,7.439c1.58,0,2.979,0,4.528,0c0,1.707,0,3.347,0,5.104c5.624,1.667,8.785,6.145,11.438,11.109
			c3.493,6.535,5.555,13.59,7.324,20.735c0.833,3.364,1.506,6.767,2.279,10.278c1.279,0,2.562,0,3.964,0c0,1.68,0,3.229,0,4.878
			c-19.853,0-39.639,0-59.53,0C0,39.684,0,19.899,0,0c1.554,0,3.059,0,4.784,0c0,18.154,0,36.336,0,54.613c1.487,0,2.76,0,4.167,0
			c0.61-2.778,1.208-5.579,1.843-8.372c1.503-6.606,3.332-13.124,6.172-19.287c1.297-2.816,2.894-5.528,4.638-8.094
			c2.354-3.463,4.539-4.916,8.392-6.299C29.996,10.887,29.996,9.238,29.996,7.439z M14.021,54.587c12.258,0,24.305,0,36.436,0
			c-0.125-0.649-0.22-1.164-0.324-1.678c-1.648-8.134-3.612-16.176-6.971-23.807c-1.499-3.407-3.189-6.704-5.881-9.366
			c-3.31-3.272-6.842-3.399-9.999,0.038c-1.845,2.009-3.446,4.355-4.685,6.789C18.129,35.341,15.995,44.864,14.021,54.587z"/>
		<path class="st0" d="M54.568,7.509c0,1.567,0,3.065,0,4.664c-1.577,0-3.079,0-4.7,0c0-1.522,0-3.023,0-4.664
			C51.389,7.509,52.931,7.509,54.568,7.509z"/>
		<path class="st0" d="M14.676,7.51c0,1.585,0,3.082,0,4.67c-1.585,0-3.081,0-4.689,0c0-1.542,0-3.036,0-4.67
			C11.508,7.51,12.994,7.51,14.676,7.51z"/>
		<path class="st0" d="M39.936,7.453c1.556,0,3.01,0,4.602,0c0,1.537,0,3.038,0,4.682c-1.484,0-2.978,0-4.602,0
			C39.936,10.661,39.936,9.16,39.936,7.453z"/>
		<path class="st0" d="M19.965,7.475c1.682,0,3.126,0,4.658,0c0,1.603,0,3.102,0,4.701c-1.578,0-3.074,0-4.658,0
			C19.965,10.603,19.965,9.1,19.965,7.475z"/>
	</g>
</g>
</svg>