<!-- Generator: Adobe Illustrator 20.1.0, SVG Export Plug-In  -->
<svg version="1.1"
	 xmlns="http://www.w3.org/2000/svg" xmlns:xlink="http://www.w3.org/1999/xlink" xmlns:a="http://ns.adobe.com/AdobeSVGViewerExtensions/3.0/"
	 x="0px" y="0px" width="88.641px" height="70.512px" viewBox="0 0 88.641 70.512"
	 style="enable-background:new 0 0 88.641 70.512;" xml:space="preserve">
<style type="text/css">
	.st0{fill:#0071BC;}
</style>
<defs>
</defs>
<g>
	<g>
		<path class="st0" d="M70.795,26.415c-0.027,14.657-11.827,26.484-26.392,26.453c-14.831-0.032-26.524-11.821-26.491-26.707
			C17.945,11.714,29.914-0.052,44.525,0C59.017,0.052,70.821,11.922,70.795,26.415z M48.707,33.762c0-0.461,0-0.771,0-1.08
			c0-2.192-0.001-4.384-0.001-6.575c0-4.039,0.002-8.078-0.002-12.116c-0.001-0.908-0.037-0.949-0.907-0.955
			c-1.212-0.01-2.423-0.017-3.635,0.007c-0.337,0.006-0.721,0.04-0.999,0.204c-1.883,1.113-3.909,1.832-6.04,2.27
			c-0.453,0.093-0.632,0.33-0.626,0.773c0.01,0.721-0.002,1.442,0.001,2.164c0.01,1.826-0.141,1.607,1.635,1.615
			c1.085,0.005,2.171,0.001,3.272,0.001c0.046,0.292,0.095,0.459,0.095,0.626c0.004,4.125-0.004,8.251,0.009,12.376
			c0.002,0.531-0.211,0.709-0.72,0.702c-1.384-0.019-2.77,0.016-4.154-0.019c-0.616-0.016-0.808,0.216-0.793,0.809
			c0.031,1.297,0.01,2.596,0.012,3.894c0.002,1.048,0.004,1.051,1.051,1.051c5.164,0.001,10.328,0.001,15.492-0.003
			c0.308,0,0.615-0.03,0.899-0.044c0.062-0.155,0.12-0.233,0.121-0.312c0.011-1.615,0.012-3.23,0.022-4.845
			c0.003-0.416-0.212-0.549-0.597-0.543c-0.75,0.012-1.5,0.003-2.25,0.002C49.997,33.762,49.403,33.762,48.707,33.762z"/>
		<path class="st0" d="M25.888,68.065c2.044-2.489,4.521-4.358,7.762-5.246c-0.156-0.176-0.249-0.312-0.371-0.415
			c-2.215-1.863-3.531-4.293-4.404-6.998c-0.216-0.67-0.126-0.818,0.504-0.859c2.474-0.159,4.896,0.079,7.196,1.073
			c2.368,1.024,4.102,2.764,5.313,4.999c0.614,1.132,1.04,2.366,1.543,3.557c0.181,0.429,0.156,0.825-0.177,1.202
			c-2.231,2.522-4.81,4.49-8.239,5.011c-2.775,0.422-5.376-0.274-7.871-1.448c-0.364-0.171-0.713-0.373-1.061-0.575
			C26.018,68.327,25.989,68.225,25.888,68.065z"/>
		<path class="st0" d="M54.921,62.795c3.275,0.908,5.76,2.765,7.839,5.293c-0.151,0.164-0.224,0.298-0.338,0.359
			c-2.879,1.558-5.9,2.464-9.209,1.871c-2.775-0.497-4.985-2.024-6.942-3.965c-1.409-1.397-1.414-1.414-0.694-3.289
			c1.054-2.748,2.577-5.159,5.15-6.739c2.719-1.669,5.723-1.989,8.828-1.739c0.078,0.006,0.151,0.068,0.34,0.159
			C59.113,57.918,57.539,60.603,54.921,62.795z"/>
		<path class="st0" d="M70.299,46.624c0.309,2.994-0.074,5.82-1.65,8.622c3.156-0.259,5.944,0.422,8.567,1.969
			c-0.075,0.194-0.097,0.376-0.196,0.491c-2.026,2.351-4.399,4.18-7.548,4.694c-2.976,0.486-5.714-0.348-8.299-1.762
			c-0.242-0.133-0.442-0.542-0.468-0.839c-0.163-1.911-0.022-3.803,0.55-5.646c0.616-1.984,1.731-3.631,3.357-4.927
			c1.46-1.164,3.092-2,4.876-2.543c0.137-0.042,0.277-0.081,0.418-0.102C69.986,46.57,70.072,46.597,70.299,46.624z"/>
		<path class="st0" d="M20.04,55.299c-1.641-2.835-2.03-5.679-1.698-8.761c0.34,0.062,0.591,0.081,0.825,0.154
			c1.863,0.58,3.563,1.465,5.068,2.716c2.391,1.988,3.418,4.642,3.688,7.644c0.08,0.886,0.063,1.788-0.001,2.676
			c-0.023,0.322-0.229,0.776-0.489,0.915c-3.204,1.72-6.548,2.576-10.125,1.273c-2.304-0.84-4.111-2.399-5.711-4.214
			c-0.088-0.1-0.127-0.243-0.235-0.458C13.997,55.685,16.776,54.976,20.04,55.299z"/>
		<path class="st0" d="M12.291,35.4c0.27,0.17,0.448,0.254,0.593,0.378c4.422,3.8,5.49,8.136,3.363,13.391
			c-0.52,1.285-1.262,1.733-2.581,1.7c-2.713-0.069-5.282-0.527-7.42-2.346c-1.879-1.598-3.012-3.679-3.745-6
			c-0.033-0.104-0.014-0.225-0.025-0.456c2.787-0.44,5.411,0.005,8.047,1.338C10.254,40.473,10.874,37.883,12.291,35.4z"/>
		<path class="st0" d="M76.349,35.445c1.403,2.442,2.02,5.02,1.756,7.958c2.59-1.335,5.209-1.735,7.99-1.369
			c0.015,0.199,0.069,0.349,0.03,0.471c-0.887,2.794-2.29,5.245-4.862,6.817c-2.337,1.428-4.932,1.694-7.599,1.421
			c-0.261-0.027-0.602-0.275-0.725-0.513c-2.851-5.552-2.011-10.417,2.959-14.586C75.999,35.559,76.148,35.532,76.349,35.445z"/>
		<path class="st0" d="M88.533,26.155c0.215,1.537,0.09,2.899-0.219,4.248c-0.729,3.177-2.822,5.133-5.734,6.334
			c-1.943,0.802-2.056,0.77-3.456-0.83c-1.417-1.619-2.462-3.417-2.594-5.626c-0.13-2.171,0.506-4.154,1.536-6.034
			c0.056-0.102,0.106-0.208,0.214-0.419c2.044,1.641,3.371,3.552,4.062,6.033C84.015,27.916,86.031,26.787,88.533,26.155z"/>
		<path class="st0" d="M0.193,26.18c2.404,0.597,4.407,1.756,6.088,3.665c0.692-2.439,2.001-4.345,3.96-5.919
			c0.18,0.22,0.352,0.371,0.449,0.559c2.437,4.717,1.803,8.776-2.247,12.449c-0.234,0.213-0.72,0.355-1.009,0.269
			c-3.519-1.054-6.209-3.007-7.129-6.8C-0.046,28.956-0.109,27.264,0.193,26.18z"/>
		<path class="st0" d="M76.87,12.791c2.053,0.743,3.697,1.928,5.016,3.752c0.829-2.091,2.145-3.629,3.991-4.848
			c0.152,0.239,0.296,0.408,0.378,0.603c1.702,4.059,0.661,7.863-2.846,10.506c-0.489,0.369-0.923,0.462-1.502,0.19
			c-2.627-1.233-4.703-2.967-5.195-5.994c-0.191-1.176-0.076-2.404-0.076-3.608C76.635,13.216,76.769,13.04,76.87,12.791z"/>
		<path class="st0" d="M6.744,16.541c1.334-1.826,2.969-3.021,5.131-3.772c0.071,0.513,0.144,0.922,0.181,1.334
			c0.383,4.234-1.517,7.342-5.435,8.932c-0.439,0.178-0.81,0.205-1.208-0.09c-3.608-2.677-5.008-6.469-2.704-11.251
			C4.554,12.848,5.861,14.402,6.744,16.541z"/>
		<path class="st0" d="M75.162,0.941c4.267,1.187,6.227,5.574,4.86,9.18C76.228,8.922,73.975,5.296,75.162,0.941z"/>
		<path class="st0" d="M13.444,0.92c1.197,4.258-0.875,7.857-4.817,9.228C7.204,6.552,9.19,2.187,13.444,0.92z"/>
	</g>
</g>
</svg>